<svg width="31" height="31" viewBox="0 0 31 31" fill="none" xmlns="http://www.w3.org/2000/svg">
<mask id="mask0_570_3619" style="mask-type:alpha" maskUnits="userSpaceOnUse" x="0" y="0" width="31" height="31">
<rect x="0.953125" y="0.308594" width="30.0469" height="30.0469" fill="#D9D9D9"/>
</mask>
<g mask="url(#mask0_570_3619)">
<path d="M15.9766 9.07227C15.288 9.07227 14.6985 8.82709 14.2082 8.33674C13.7178 7.8464 13.4727 7.25693 13.4727 6.56836C13.4727 5.87979 13.7178 5.29032 14.2082 4.79998C14.6985 4.30963 15.288 4.06445 15.9766 4.06445C16.6651 4.06445 17.2546 4.30963 17.7449 4.79998C18.2353 5.29032 18.4805 5.87979 18.4805 6.56836C18.4805 7.25693 18.2353 7.8464 17.7449 8.33674C17.2546 8.82709 16.6651 9.07227 15.9766 9.07227ZM14.0986 26.5996V11.5762H17.8545V26.5996H14.0986Z" fill="white"/>
</g>
</svg>
